<svg width="72" height="72" viewBox="0 0 72 72" fill="none" xmlns="http://www.w3.org/2000/svg">
<rect x="0.25" y="0.25" width="71.5" height="71.5" rx="15.75" fill="white" stroke="#B8A49F" stroke-width="0.5"/>
<g clip-path="url(#clip0_1_133)">
<path d="M51.3714 27.7559V50.749C51.3714 52.1575 50.5603 53.4324 49.3038 53.9976L39.6451 58.3416L36.5041 59.7544C36.1146 59.9296 35.6972 60.0115 35.2818 59.9993V35.4562L51.3714 27.7559Z" fill="#2534A6"/>
<path d="M39.6451 58.3416L36.5041 59.7544C36.1146 59.9296 35.6972 60.0115 35.2818 59.9993C34.8721 59.9885 34.4644 59.8872 34.0882 59.6962C34.0875 59.6962 34.0868 59.6947 34.0861 59.6947L23.2269 54.1564C21.9193 53.4891 21.0921 52.1187 21.0921 50.619V32.6277C21.0921 30.4163 23.3821 28.9985 25.2855 30.0313L33.7589 34.6295C34.2882 34.9168 35.2818 35.4562 35.2818 35.4562V54.6785C35.2818 56.2321 35.7706 57.4179 36.5601 58.0794C37.3495 58.7409 38.4403 58.886 39.6451 58.3416Z" fill="#273ECD"/>
<path d="M35.2818 35.4562L26.5609 38.829C26.2168 38.9619 25.8323 38.9239 25.5204 38.7249L21.0921 35.9072L10.2769 29.025C9.78183 28.7104 9.993 27.9268 10.5748 27.9175L21.0921 27.7559L35.2818 35.4562Z" fill="#F24822"/>
<path d="M33.5002 20.7667C31.794 21.4993 30.4857 23.0184 30.0075 24.8808L28.8138 25.2658C28.8292 25.1329 28.8369 24.9978 28.8369 24.8614C28.8369 22.948 27.3217 21.3915 25.4596 21.3915C23.5975 21.3915 22.0815 22.948 22.0815 24.8614C22.0815 25.7427 22.4039 26.5493 22.9339 27.1619L21.0928 27.7559H21.0921L12.7655 19.1614C12.7375 19.1334 12.7138 19.1032 12.6928 19.0716C12.6718 19.0407 12.6536 19.0084 12.639 18.9747C12.6348 18.9653 12.6306 18.956 12.6271 18.9459C12.6152 18.9172 12.6061 18.8878 12.5998 18.8583C12.5851 18.798 12.5802 18.7362 12.583 18.6752C12.5837 18.6644 12.5844 18.6536 12.5851 18.6435C12.5879 18.6163 12.5921 18.5904 12.5977 18.5638C12.6026 18.538 12.6096 18.5121 12.6194 18.487C12.6264 18.4669 12.6341 18.4475 12.6431 18.4281C12.6473 18.418 12.6522 18.4087 12.6571 18.3993C12.6662 18.38 12.6774 18.3606 12.6907 18.3419C12.6991 18.329 12.7082 18.316 12.7173 18.3038C12.7271 18.2916 12.7368 18.2787 12.7473 18.2672C12.755 18.2593 12.762 18.2514 12.7697 18.2435C12.7739 18.2385 12.7781 18.2342 12.783 18.2306C12.7907 18.2219 12.7984 18.2148 12.8068 18.2083C12.8159 18.2004 12.8249 18.1932 12.834 18.1867C12.8424 18.1803 12.8508 18.1738 12.8592 18.1681C12.8991 18.1401 12.9431 18.1171 12.9907 18.0991C13.0075 18.0927 13.0256 18.0862 13.0438 18.0812L26.2707 14.3147C26.2462 14.5029 26.2336 14.6954 26.2336 14.8907C26.2336 17.3299 28.1649 19.3144 30.5396 19.3144C31.0794 19.3144 31.5954 19.2117 32.0723 19.0242L33.4995 20.7667H33.5002Z" fill="#F24822"/>
<path d="M39.2158 17.9505C39.615 18.0991 40.0465 18.1803 40.4954 18.1803C42.4407 18.1803 44.0468 16.6605 44.2482 14.7169L59.5658 17.3859C59.6861 17.4067 59.7861 17.4649 59.8602 17.5446C59.884 17.5705 59.9057 17.5985 59.9239 17.628C59.9518 17.6725 59.9728 17.7206 59.9875 17.7709C60.0364 17.9447 60.005 18.1422 59.8679 18.2952L51.3707 27.7559L48.0927 26.8042C48.8388 26.1672 49.3142 25.2069 49.3142 24.1352C49.3142 22.2218 47.7997 20.6654 45.9369 20.6654C44.0741 20.6654 42.5596 22.2218 42.5596 24.1352C42.5596 24.5253 42.6225 24.9002 42.7379 25.25L41.6128 24.9232C41.0765 22.7742 39.4367 21.0748 37.353 20.5024C37.353 20.5024 37.353 20.5017 37.3523 20.5017L39.2144 17.9512" fill="#F24822"/>
<path d="M60.7133 29.0825L51.3714 34.2919L43.5028 38.6797C42.9882 38.967 42.3708 38.9813 41.8442 38.7192L35.2818 35.4562L51.3714 27.7559L60.4686 28.0288C61.0266 28.0453 61.2042 28.8088 60.7133 29.0825Z" fill="#F24822"/>
<path d="M34.2868 14.8907C34.2868 16.6052 33.1967 18.0568 31.6891 18.5552H31.6884C31.3262 18.6752 30.9402 18.7398 30.5396 18.7398C28.4705 18.7398 26.793 17.0167 26.793 14.8907C26.793 14.6358 26.8175 14.3872 26.8637 14.1459C27.2007 12.3769 28.7187 11.0424 30.5396 11.0424C32.6093 11.0424 34.2868 12.7655 34.2868 14.8907Z" fill="#273ECD"/>
<path d="M43.7105 14.3032C43.7105 14.4102 43.7056 14.5158 43.6958 14.6199C43.5406 16.2949 42.1666 17.6057 40.4954 17.6057C40.173 17.6057 39.8619 17.5568 39.5689 17.4663C38.2445 17.0577 37.2803 15.7957 37.2803 14.3032C37.2803 12.4789 38.7193 11 40.4954 11C42.2715 11 43.7105 12.4789 43.7105 14.3032Z" fill="#F24822"/>
<path d="M48.7556 24.1352C48.7556 25.1803 48.2157 26.0968 47.4074 26.6053C46.9795 26.8746 46.476 27.0297 45.9376 27.0297C44.8419 27.0297 43.893 26.3876 43.4266 25.4496C43.2301 25.0553 43.1197 24.6086 43.1197 24.1352C43.1197 22.5364 44.3811 21.24 45.9376 21.24C47.4941 21.24 48.7556 22.5364 48.7556 24.1352Z" fill="#273ECD"/>
<path d="M28.2775 24.8614C28.2775 25.0661 28.2572 25.265 28.2174 25.4575C27.9503 26.7697 26.8161 27.7559 25.4596 27.7559C24.7128 27.7559 24.0331 27.4571 23.529 26.9701C22.9821 26.4422 22.6409 25.6924 22.6409 24.8614C22.6409 23.2626 23.903 21.9661 25.4596 21.9661C27.0161 21.9661 28.2775 23.2626 28.2775 24.8614Z" fill="#273ECD"/>
<path d="M41.2408 26.4516C41.2408 29.5357 38.8067 32.0352 35.8049 32.0352C32.803 32.0352 30.369 29.5357 30.369 26.4516C30.369 25.8296 30.4682 25.2313 30.6508 24.6732C31.1689 23.0873 32.3618 21.8196 33.8785 21.2292H33.8792C34.4777 20.9958 35.1266 20.868 35.8049 20.868C36.2111 20.868 36.6076 20.9139 36.9887 21.0008C38.876 21.4318 40.394 22.8704 40.98 24.7393C41.1485 25.2787 41.2401 25.854 41.2401 26.4516H41.2408Z" fill="#F24822"/>
</g>
<defs>
<clipPath id="clip0_1_133">
<rect width="51" height="49" fill="white" transform="translate(10 11)"/>
</clipPath>
</defs>
</svg>
