<svg width="71" height="72" viewBox="0 0 71 72" fill="none" xmlns="http://www.w3.org/2000/svg">
<rect x="0.25" y="0.25" width="70.5" height="71.5" rx="15.75" fill="white" stroke="#B8A49F" stroke-width="0.5"/>
<g clip-path="url(#clip0_1_123)">
<path d="M36.7938 51.0438H39.5812V52.2375H36.7938V51.0438Z" fill="#645754" stroke="white" stroke-width="0.4"/>
<path d="M35.2 54.2313H41.175V55.425H35.2V54.2313Z" fill="#645754" stroke="white" stroke-width="0.4"/>
<mask id="path-4-inside-1_1_123" fill="white">
<path d="M54.125 25.3436V18.9686C54.13 16.1198 52.6109 13.4861 50.1436 12.0627C47.6763 10.6393 44.6352 10.6452 42.1719 12.0776C39.7095 10.6452 36.6685 10.6393 34.2001 12.0627C31.7318 13.4861 30.2138 16.1198 30.2188 18.9686V25.3436H25.4375V44.4686H23.8438V41.2811C23.8408 38.6414 21.7021 36.5028 19.0625 36.4998H18.2656V41.5749C18.2656 41.7383 18.2158 41.8987 18.1212 42.0322L16.0961 44.9248C15.9467 45.138 15.7027 45.2655 15.4427 45.2655H13.4844V43.6717H9.5V45.2655H11.8906V58.0155H9.5V59.6092H13.4844V57.2186H16.0852L19.2727 58.8123H25.4375V61.9998H60.5V25.3436H54.125ZM46.1562 12.5936C49.6754 12.5976 52.5273 15.4494 52.5312 18.9686V25.3436H46.1562V18.9686C46.1553 16.7513 45.2269 14.6366 43.5963 13.1345C44.4021 12.7779 45.2747 12.5936 46.1562 12.5936ZM42.1719 14.0001C43.682 15.2063 44.5625 17.0352 44.5625 18.9686V25.3436H39.7812V18.9686C39.7812 17.0352 40.6618 15.2063 42.1719 14.0001ZM31.8125 18.9686C31.8105 16.816 32.8962 14.8069 34.6982 13.6295C36.5011 12.4521 38.7762 12.2659 40.7465 13.1335C39.1159 14.6356 38.1885 16.7513 38.1865 18.9676V25.3426H31.8115V18.9676L31.8125 18.9686ZM26.2344 54.0311H24.6406V55.6248H26.2344V56.4217C26.2344 56.862 25.8778 57.2186 25.4375 57.2186H19.6492L16.4617 55.6248H13.4844V46.8592H15.4427C16.2226 46.8592 16.9548 46.4777 17.402 45.8392L19.4271 42.9466C19.709 42.5441 19.8604 42.066 19.8594 41.5749V38.1942C21.2659 38.5588 22.248 39.8278 22.25 41.2801V46.0613H30.2188C30.659 46.0613 31.0156 46.4179 31.0156 46.8582C31.0156 47.2985 30.659 47.6551 30.2188 47.6551H26.2344V49.2488H29.4219V50.0457C29.4219 50.486 29.0653 50.8426 28.625 50.8426H24.6406V52.4363H27.8281V53.2332C27.8281 53.6735 27.4715 54.0301 27.0312 54.0301H26.2344V54.0311ZM49.3438 60.4061H27.0312V58.1908C27.5363 57.7405 27.8261 57.0981 27.8281 56.4217V55.4884C28.7824 55.1497 29.4209 54.2472 29.4219 53.2342V52.3009C30.3761 51.9622 31.0146 51.0597 31.0156 50.0467V49.1134C32.1143 48.7259 32.7727 47.6033 32.5765 46.4548C32.3793 45.3073 31.3842 44.4676 30.2188 44.4686H27.0312V26.9373H30.2188V30.1248H28.625V31.7186H33.4062V30.1248H31.8125V26.9373H44.5625V30.1248H42.9688V31.7186H47.75V30.1248H46.1562V26.9373H49.3438V60.4061ZM50.9375 26.9373H54.125V54.5809L50.9375 59.2168V26.9373ZM52.0531 60.4061L54.9488 56.1936L58.1094 60.4061H52.0531ZM58.9062 58.8123L55.7188 54.563V26.9373H58.9062V58.8123Z"/>
</mask>
<path d="M54.125 25.3436V18.9686C54.13 16.1198 52.6109 13.4861 50.1436 12.0627C47.6763 10.6393 44.6352 10.6452 42.1719 12.0776C39.7095 10.6452 36.6685 10.6393 34.2001 12.0627C31.7318 13.4861 30.2138 16.1198 30.2188 18.9686V25.3436H25.4375V44.4686H23.8438V41.2811C23.8408 38.6414 21.7021 36.5028 19.0625 36.4998H18.2656V41.5749C18.2656 41.7383 18.2158 41.8987 18.1212 42.0322L16.0961 44.9248C15.9467 45.138 15.7027 45.2655 15.4427 45.2655H13.4844V43.6717H9.5V45.2655H11.8906V58.0155H9.5V59.6092H13.4844V57.2186H16.0852L19.2727 58.8123H25.4375V61.9998H60.5V25.3436H54.125ZM46.1562 12.5936C49.6754 12.5976 52.5273 15.4494 52.5312 18.9686V25.3436H46.1562V18.9686C46.1553 16.7513 45.2269 14.6366 43.5963 13.1345C44.4021 12.7779 45.2747 12.5936 46.1562 12.5936ZM42.1719 14.0001C43.682 15.2063 44.5625 17.0352 44.5625 18.9686V25.3436H39.7812V18.9686C39.7812 17.0352 40.6618 15.2063 42.1719 14.0001ZM31.8125 18.9686C31.8105 16.816 32.8962 14.8069 34.6982 13.6295C36.5011 12.4521 38.7762 12.2659 40.7465 13.1335C39.1159 14.6356 38.1885 16.7513 38.1865 18.9676V25.3426H31.8115V18.9676L31.8125 18.9686ZM26.2344 54.0311H24.6406V55.6248H26.2344V56.4217C26.2344 56.862 25.8778 57.2186 25.4375 57.2186H19.6492L16.4617 55.6248H13.4844V46.8592H15.4427C16.2226 46.8592 16.9548 46.4777 17.402 45.8392L19.4271 42.9466C19.709 42.5441 19.8604 42.066 19.8594 41.5749V38.1942C21.2659 38.5588 22.248 39.8278 22.25 41.2801V46.0613H30.2188C30.659 46.0613 31.0156 46.4179 31.0156 46.8582C31.0156 47.2985 30.659 47.6551 30.2188 47.6551H26.2344V49.2488H29.4219V50.0457C29.4219 50.486 29.0653 50.8426 28.625 50.8426H24.6406V52.4363H27.8281V53.2332C27.8281 53.6735 27.4715 54.0301 27.0312 54.0301H26.2344V54.0311ZM49.3438 60.4061H27.0312V58.1908C27.5363 57.7405 27.8261 57.0981 27.8281 56.4217V55.4884C28.7824 55.1497 29.4209 54.2472 29.4219 53.2342V52.3009C30.3761 51.9622 31.0146 51.0597 31.0156 50.0467V49.1134C32.1143 48.7259 32.7727 47.6033 32.5765 46.4548C32.3793 45.3073 31.3842 44.4676 30.2188 44.4686H27.0312V26.9373H30.2188V30.1248H28.625V31.7186H33.4062V30.1248H31.8125V26.9373H44.5625V30.1248H42.9688V31.7186H47.75V30.1248H46.1562V26.9373H49.3438V60.4061ZM50.9375 26.9373H54.125V54.5809L50.9375 59.2168V26.9373ZM52.0531 60.4061L54.9488 56.1936L58.1094 60.4061H52.0531ZM58.9062 58.8123L55.7188 54.563V26.9373H58.9062V58.8123Z" fill="#645754" stroke="white" stroke-width="0.8" mask="url(#path-4-inside-1_1_123)"/>
<path d="M38.1875 35.1428L38.0688 35.0553C36.0625 33.5762 33.2339 34.0999 31.5846 36.0149L38.1875 35.1428ZM38.1875 35.1428L38.3061 35.0554M38.1875 35.1428L38.3061 35.0554M38.3061 35.0554C40.3136 33.5762 43.1402 34.1 44.7884 36.0149L44.7885 36.0149C46.4265 37.9169 46.3223 40.7588 44.5494 42.5355L38.1865 48.8984M38.3061 35.0554L38.1865 48.8984M38.1865 48.8984L31.8236 42.5355C30.0508 40.7589 29.9474 37.917 31.5845 36.0149L38.1865 48.8984ZM38.0461 47.0695L38.189 47.2125L38.3304 47.068L43.6409 41.6414C43.6412 41.6411 43.6414 41.6408 43.6417 41.6406C45.0435 40.238 45.1217 38.0045 43.7088 36.5917C42.3009 35.1838 40.0188 35.1838 38.6109 36.5917L38.1877 37.0148L37.7654 36.5969L37.7654 36.5969L37.7625 36.5941C36.3461 35.2484 34.1146 35.2758 32.732 36.6574C31.3494 38.0389 31.3198 40.2704 32.6645 41.6879L32.6644 41.6879L32.6682 41.6916L38.0461 47.0695Z" fill="#645754" stroke="white" stroke-width="0.4"/>
</g>
<defs>
<clipPath id="clip0_1_123">
<rect width="51" height="51" fill="white" transform="translate(9.5 11)"/>
</clipPath>
</defs>
</svg>
