<svg width="72" height="72" viewBox="0 0 72 72" fill="none" xmlns="http://www.w3.org/2000/svg">
<rect x="0.25" y="0.25" width="71.5" height="71.5" rx="15.75" fill="white" stroke="#B8A49F" stroke-width="0.5"/>
<g clip-path="url(#clip0_1_99)">
<path d="M48.2577 19.6906L48.2577 19.6906L48.2564 19.6883C48.018 19.2721 47.6524 19.0216 47.2164 19.0216H47.2157H39.7601H39.6304L39.6633 19.147L41.9621 27.8926L41.9817 27.9671H42.0588H52.5424H52.7097L52.6305 27.8198L48.2577 19.6906ZM38.6803 19.0961L38.6607 19.0216H38.5836H32.4171H32.34L32.3204 19.0961L30.0217 27.8417L29.9887 27.9671H30.1184H40.8823H41.012L40.9791 27.8417L38.6803 19.0961ZM41.15 28.988V28.888H41.05H29.95H29.85V28.988V35.3792V35.4792H29.95H41.05H41.15V35.3792V28.988ZM22.7435 19.6884L22.7435 19.6884L22.7421 19.6911L18.4249 27.8202L18.3469 27.9671H18.5132H28.9412H29.0183L29.0379 27.8926L31.3367 19.147L31.3696 19.0216H31.2399H23.7836C23.3477 19.0216 22.9813 19.272 22.7435 19.6884ZM18.1208 28.888H18.0208V28.988V52.6456C18.0208 53.3736 18.6264 53.9792 19.3544 53.9792H51.6449C52.3729 53.9792 52.9784 53.3736 52.9784 52.6456V28.988V28.888H52.8784H42.1708H42.0708V28.988V35.9392C42.0708 36.0848 42.0227 36.1983 41.9458 36.2752C41.8689 36.352 41.7554 36.4 41.6101 36.4H29.3892C29.2436 36.4 29.1301 36.3518 29.0533 36.2749C28.9764 36.198 28.9284 36.0845 28.9284 35.9392V28.988V28.888H28.8284H18.1208ZM49.0347 19.2246L53.8455 28.1755C53.8477 28.1935 53.8513 28.2119 53.8547 28.2275C53.8603 28.2537 53.8677 28.2829 53.8745 28.3101L53.8748 28.3114C53.882 28.3399 53.8886 28.3661 53.8934 28.3886C53.8958 28.3998 53.8976 28.409 53.8987 28.4164C53.8998 28.4234 53.9 28.4267 53.9 28.4272L53.9 28.4272V52.6456C53.9 53.8796 52.8796 54.9 51.6456 54.9H19.3544C18.1204 54.9 17.1 53.8796 17.1 52.6456V28.4272C17.1 28.4273 17.1001 28.424 17.1013 28.4153C17.1025 28.4072 17.1042 28.3974 17.1064 28.3852C17.1069 28.3823 17.1074 28.3793 17.108 28.3762C17.112 28.3542 17.1169 28.3269 17.1204 28.2995C17.1242 28.2686 17.1271 28.2317 17.1232 28.1958C17.1217 28.1814 17.1188 28.1647 17.1132 28.1474L21.9096 19.2246C22.2843 18.5291 23.035 18.1 23.7836 18.1H47.1608C47.9637 18.1 48.6594 18.5272 49.0347 19.2245C49.0347 19.2246 49.0347 19.2246 49.0347 19.2246Z" fill="#645754" stroke="white" stroke-width="0.2"/>
<path d="M19.8739 44.4195L19.874 44.4196L19.8775 44.4157L21.8941 42.1753C21.9435 42.1261 21.9892 42.093 22.0373 42.0715C22.0856 42.05 22.1415 42.038 22.214 42.038C22.2864 42.038 22.3423 42.05 22.3906 42.0715C22.4389 42.093 22.4847 42.1263 22.5343 42.1757L24.6034 44.4128C24.7399 44.5982 24.739 44.8728 24.5591 45.0577C24.3724 45.1932 24.0967 45.1909 23.9123 45.0082L22.8489 43.8329L22.6747 43.6404V43.9V48.7208C22.6747 48.8665 22.6267 48.98 22.5499 49.0568C22.4731 49.1336 22.3597 49.1816 22.214 49.1816C22.0683 49.1816 21.9549 49.1335 21.878 49.0566C21.8012 48.9796 21.7532 48.8661 21.7532 48.7208V43.9V43.6404L21.579 43.8329L20.5155 45.0082C20.4199 45.1033 20.2881 45.1626 20.1718 45.1742C20.0525 45.1861 19.9787 45.1482 19.949 45.0889L19.9417 45.0743L19.9301 45.0628C19.7307 44.864 19.7015 44.5919 19.8739 44.4195Z" fill="#645754" stroke="white" stroke-width="0.2"/>
<path d="M26.8251 44.4195L26.8252 44.4196L26.8287 44.4157L28.8453 42.1753C28.8948 42.1261 28.9404 42.093 28.9886 42.0715C29.0369 42.05 29.0927 42.038 29.1652 42.038C29.2521 42.038 29.3939 42.0847 29.486 42.1762L31.6113 44.4133C31.7475 44.5987 31.7464 44.873 31.5667 45.0577C31.38 45.1932 31.1043 45.1909 30.9199 45.0082L29.8565 43.8329L29.6823 43.6404V43.9V48.7208C29.6823 48.8665 29.6343 48.98 29.5575 49.0568C29.4807 49.1336 29.3673 49.1816 29.2216 49.1816C29.0759 49.1816 28.9625 49.1335 28.8856 49.0566C28.8088 48.9796 28.7608 48.8661 28.7608 48.7208V43.9V43.6404L28.5866 43.8329L27.5231 45.0083C27.3246 45.2061 27.0541 45.2349 26.8814 45.0628C26.682 44.864 26.6527 44.5919 26.8251 44.4195Z" fill="#645754" stroke="white" stroke-width="0.2"/>
<path d="M20.5316 50.4468H30.7905C30.8981 50.4468 31.0142 50.5016 31.1053 50.5928C31.1964 50.6839 31.2512 50.7999 31.2512 50.9076C31.2512 51.0532 31.2031 51.1667 31.1262 51.2435C31.0493 51.3204 30.9358 51.3684 30.7905 51.3684H20.5316C20.3859 51.3684 20.2724 51.3203 20.1957 51.2435C20.1189 51.1668 20.0708 51.0533 20.0708 50.9076C20.0708 50.762 20.119 50.6485 20.1959 50.5717C20.2728 50.4948 20.3863 50.4468 20.5316 50.4468Z" fill="#645754" stroke="white" stroke-width="0.2"/>
<path d="M46.9334 48.6339L46.9489 48.6128L46.9356 48.6357C47.0812 48.7326 47.0945 48.8511 47.07 48.8999L47.0593 48.9211V48.9448C47.0593 49.0904 47.0126 49.2221 46.8799 49.3104L46.8799 49.3103L46.8763 49.3129L41.8888 52.9553C41.7338 53.0584 41.5583 53.0886 41.4407 53.0104C41.2955 52.9138 41.2049 52.7745 41.2049 52.5892V50.7956V50.6956H41.1049H40.0961C37.6234 50.6956 35.5971 48.8289 35.4872 46.4756C35.4326 44.2822 37.0238 42.3095 39.2141 41.9812L39.2141 41.9813L39.219 41.9804C39.4381 41.9363 39.6214 42.0615 39.7213 42.2533C39.7656 42.4449 39.7135 42.6745 39.5316 42.8112C38.8362 43.3326 38.4244 44.0915 38.483 44.9709C38.5428 46.2075 39.6581 47.1956 40.9936 47.1956H41.162H41.262V47.0956V45.3576C41.262 45.1723 41.3526 45.033 41.4978 44.9364C41.6152 44.8583 41.7906 44.8889 41.946 44.9916L46.9334 48.6339ZM42.1272 51.524V51.7202L42.286 51.6049L45.7612 49.0821L45.8727 49.0012L45.7612 48.9203L42.2852 46.3975L42.1265 46.2823V46.4784V47.6556C42.1265 47.8012 42.0783 47.9147 42.0014 47.9916C41.9245 48.0684 41.811 48.1164 41.6657 48.1164H40.9373C39.1339 48.1164 37.6138 46.806 37.5054 45.071L37.5058 45.0709L37.5046 45.063C37.451 44.6893 37.5041 44.3119 37.6138 43.9274L37.7109 43.5873L37.4501 43.8263C36.7572 44.4611 36.2944 45.4426 36.3526 46.484L36.3527 46.4847C36.4681 48.3336 38.0839 49.8297 40.0404 49.8297H41.6664C41.812 49.8297 41.9255 49.8778 42.0024 49.9547C42.0792 50.0316 42.1272 50.1451 42.1272 50.2904V51.524Z" fill="#645754" stroke="white" stroke-width="0.2"/>
<path d="M51.6577 42.111L51.659 42.1386C51.6995 44.3207 50.1125 46.2775 47.9315 46.605L47.9314 46.6049L47.9266 46.6059C47.7075 46.6499 47.5242 46.5247 47.4243 46.3329C47.38 46.1413 47.4321 45.9118 47.6139 45.7751C48.3093 45.2537 48.7212 44.4947 48.6626 43.6153C48.6028 42.3788 47.4875 41.3907 46.152 41.3907H45.9836H45.8836V41.4907V43.2286C45.8836 43.4139 45.793 43.5532 45.6478 43.6498C45.5303 43.7279 45.3549 43.6973 45.1996 43.5946L40.2187 39.9571C40.1153 39.8512 40.0292 39.7106 40.0292 39.5843C40.0292 39.4387 40.0759 39.307 40.2086 39.2188L40.2086 39.2189L40.2122 39.2163L45.1997 35.5739C45.3547 35.4707 45.5302 35.4405 45.6478 35.5188C45.793 35.6154 45.8836 35.7547 45.8836 35.9399V37.7899V37.8899H45.9836H47.0488C49.5211 37.8899 51.5483 39.7572 51.6577 42.111ZM49.531 44.6574L49.434 44.9975L49.6948 44.7585C50.3876 44.1237 50.8512 43.1423 50.793 42.1008L50.7929 42.1001C50.6775 40.2512 49.0617 38.7551 47.1051 38.7551H45.4792C45.3715 38.7551 45.2554 38.7003 45.1643 38.6092C45.0732 38.5181 45.0184 38.402 45.0184 38.2943V37.0608V36.8646L44.8596 36.9798L41.3837 39.5026L41.2722 39.5836L41.3837 39.6645L44.8596 42.1873L45.0184 42.3025V42.1064V40.9292C45.0184 40.7835 45.0665 40.6701 45.1434 40.5932C45.2204 40.5164 45.3339 40.4684 45.4792 40.4684H46.2076C48.0109 40.4684 49.5311 41.7788 49.6394 43.5138L49.6391 43.5138L49.6402 43.5218C49.6939 43.8955 49.6408 44.2729 49.531 44.6574Z" fill="#645754" stroke="white" stroke-width="0.2"/>
</g>
<defs>
<clipPath id="clip0_1_99">
<rect width="37" height="37" fill="white" transform="translate(17 18)"/>
</clipPath>
</defs>
</svg>
