<svg width="72" height="72" viewBox="0 0 72 72" fill="none" xmlns="http://www.w3.org/2000/svg">
<rect x="0.25" y="0.25" width="71.5" height="71.5" rx="15.75" fill="white" stroke="#B8A49F" stroke-width="0.5"/>
<g clip-path="url(#clip0_1_112)">
<path d="M60.4402 51.3305V51.5305H60.6402H61.227C62.4406 51.5305 63.4276 52.5176 63.4276 53.7312V56.7186C63.4276 57.9322 62.4406 58.9192 61.227 58.9192H59.9467C59.6154 58.9192 59.3464 58.6503 59.3464 58.319C59.3464 57.9878 59.6154 57.7188 59.9467 57.7188H61.227C61.7792 57.7188 62.2272 57.2708 62.2272 56.7186V53.7312C62.2272 53.179 61.7792 52.731 61.227 52.731H19.3494H19.1494V52.931V56.7186C19.1494 57.2708 19.5974 57.7188 20.1496 57.7188H24.4387H24.602L24.6347 57.5589C24.9638 55.9477 26.4109 54.7314 28.0983 54.7314C29.7861 54.7314 31.2014 55.9217 31.5498 57.5084L31.5843 57.6655H31.7451H49.6304H49.7913L49.8257 57.5083C50.1731 55.9217 51.5883 54.7314 53.2772 54.7314C55.2259 54.7314 56.8115 56.3169 56.8115 58.2657C56.8115 60.2144 55.2259 61.8 53.2772 61.8C51.5895 61.8 50.1741 60.6097 49.8257 59.023L49.7912 58.8659H49.6304H31.7451H31.5842L31.5498 59.0231C31.2025 60.609 29.7686 61.8 28.0983 61.8C26.4277 61.8 25.0246 60.6339 24.6579 59.0735L24.6217 58.9192H24.4632H20.1496C18.936 58.9192 17.949 57.9322 17.949 56.7186V32.2856C17.949 31.7334 17.5009 31.2854 16.9487 31.2854H16.3619H16.1619V31.4854V32.2856C16.1619 33.4992 15.1749 34.4862 13.9613 34.4862H11.4006C10.187 34.4862 9.2 33.4992 9.2 32.2856C9.2 31.0719 10.187 30.0849 11.4006 30.0849H16.9487C18.1624 30.0849 19.1494 31.0719 19.1494 32.2856V48.6632V48.8632H19.3494H20.9498H21.1498V48.6632V13.9341C21.1498 12.4271 22.3769 11.2 23.8839 11.2H41.0617C42.5687 11.2 43.7958 12.4271 43.7958 13.9341V23.1845V23.4159L44.0248 23.3824C44.1059 23.3705 44.1843 23.3632 44.2626 23.3632H57.1726C58.0917 23.3632 58.8397 24.1112 58.8397 25.0303V48.6845V48.8577L59.0112 48.8825C59.8175 48.9987 60.4402 49.6929 60.4402 50.5303V51.3305ZM14.9615 31.4854V31.2854H14.7615H11.4006C10.8485 31.2854 10.4004 31.7334 10.4004 32.2856C10.4004 32.8377 10.8485 33.2858 11.4006 33.2858H13.9613C14.5135 33.2858 14.9615 32.8377 14.9615 32.2856V31.4854ZM57.4393 48.8632H57.6393V48.6632V25.0303C57.6393 24.7726 57.4303 24.5636 57.1726 24.5636H44.2626C44.0049 24.5636 43.7958 24.7726 43.7958 25.0303V48.6632V48.8632H43.9958H57.4393ZM22.5502 37.5803H22.3502V37.7803V48.6632V48.8632H22.5502H42.3954H42.5954V48.6632V13.9341C42.5954 13.0885 41.9073 12.4004 41.0617 12.4004H23.8839C23.0383 12.4004 22.3502 13.0885 22.3502 13.9341V36.1799V36.3799H22.5502H39.4613C39.7926 36.3799 40.0615 36.6489 40.0615 36.9801C40.0615 37.3114 39.7926 37.5803 39.4613 37.5803H22.5502ZM59.0397 51.5305H59.2397V51.3305V50.5303C59.2397 50.2726 59.0307 50.0636 58.773 50.0636H19.3494H19.1494V50.2636V51.3305V51.5305H19.3494H59.0397ZM55.6121 58.2657C55.6121 56.9784 54.5655 55.9318 53.2782 55.9318C51.9909 55.9318 50.9444 56.9784 50.9444 58.2657C50.9444 59.553 51.9909 60.5996 53.2782 60.5996C54.5655 60.5996 55.6121 59.553 55.6121 58.2657ZM30.4322 58.2657C30.4322 56.9784 29.3856 55.9318 28.0983 55.9318C26.811 55.9318 25.7644 56.9784 25.7644 58.2657C25.7644 59.553 26.811 60.5996 28.0983 60.5996C29.3856 60.5996 30.4322 59.553 30.4322 58.2657Z" fill="#645754" stroke="white" stroke-width="0.4"/>
<path d="M47.3788 30.7947L46.9967 30.8772V42.5496L47.3788 42.6321L50.0217 36.7959L50.059 36.7134L50.0217 36.6309L47.3788 30.7947ZM54.0563 42.6321L54.4385 42.5496V30.8772L54.0563 30.7947L51.4135 36.6309L51.3761 36.7134L51.4135 36.7959L54.0563 42.6321ZM53.8 45.6623H54.1101L53.9822 45.3799L50.8998 38.5706L50.7176 38.1682L50.5354 38.5706L47.4519 45.3798L47.324 45.6623H47.6341H53.8ZM50.5354 34.8551L50.5886 34.9726H50.7176H50.7186H50.8476L50.9008 34.8551L53.9832 28.0469L54.1111 27.7644H53.801H47.6352H47.3251L47.453 28.0469L50.5354 34.8551ZM54.8253 46.8628H46.6098C46.1612 46.8628 45.7962 46.4978 45.7962 46.0492V27.3776C45.7962 26.929 46.1612 26.564 46.6098 26.564H54.8253C55.2739 26.564 55.6389 26.929 55.6389 27.3776V46.0492C55.6389 46.4978 55.2739 46.8628 54.8253 46.8628Z" fill="#645754" stroke="white" stroke-width="0.4"/>
<path d="M25.4709 22.9071V22.8039L25.3868 22.7441C25.0824 22.5277 24.8841 22.1752 24.8841 21.7762C24.8841 21.1216 25.4166 20.5891 26.0711 20.5891C26.7257 20.5891 27.2582 21.1216 27.2582 21.7762C27.2582 22.1742 27.0598 22.5278 26.7555 22.7441L26.6713 22.8039V22.9071V25.9799V26.0831L26.7555 26.1429C27.0598 26.3593 27.2582 26.7118 27.2582 27.1109C27.2582 27.7654 26.7257 28.2979 26.0711 28.2979C25.4166 28.2979 24.8841 27.7654 24.8841 27.1109C24.8841 26.7128 25.0825 26.3592 25.3868 26.1429L25.4709 26.0831V25.9799V22.9071Z" fill="#645754" stroke="white" stroke-width="0.4"/>
<path d="M25.4709 42.2188V42.1156L25.3868 42.0558C25.0824 41.8395 24.8841 41.4869 24.8841 41.0879C24.8841 40.4333 25.4166 39.9008 26.0711 39.9008C26.7257 39.9008 27.2582 40.4333 27.2582 41.0879C27.2582 41.4859 27.0598 41.8395 26.7555 42.0558L26.6713 42.1156V42.2188V44.2247V44.3279L26.7555 44.3877C27.0598 44.6041 27.2582 44.9566 27.2582 45.3556C27.2582 46.0102 26.7257 46.5427 26.0711 46.5427C25.4166 46.5427 24.8841 46.0102 24.8841 45.3556C24.8841 44.9576 25.0825 44.604 25.3868 44.3877L25.4709 44.3279V44.2247V42.2188Z" fill="#645754" stroke="white" stroke-width="0.4"/>
</g>
<defs>
<clipPath id="clip0_1_112">
<rect width="54.6276" height="51" fill="white" transform="translate(9 11)"/>
</clipPath>
</defs>
</svg>
