<svg width="26" height="26" viewBox="0 0 26 26" fill="none" xmlns="http://www.w3.org/2000/svg">
<path d="M4.00023 22.1793C3.71645 22.1793 3.4789 22.0837 3.28756 21.8923C3.09601 21.7008 3.00023 21.4632 3.00023 21.1797C3.00023 20.8959 3.09601 20.6582 3.28756 20.4667C3.4789 20.2753 3.71645 20.1797 4.00023 20.1797H5.41056V10.2307C5.41056 8.43757 5.96401 6.85212 7.0709 5.47434C8.17756 4.09657 9.59845 3.21534 11.3336 2.83068V2.00001C11.3336 1.53845 11.496 1.14534 11.8209 0.820677C12.1456 0.495788 12.5387 0.333344 13.0002 0.333344C13.4618 0.333344 13.8549 0.495788 14.1796 0.820677C14.5045 1.14534 14.6669 1.53845 14.6669 2.00001V2.83068C16.402 3.21534 17.8229 4.09657 18.9296 5.47434C20.0365 6.85212 20.5899 8.43757 20.5899 10.2307V20.1797H22.0002C22.284 20.1797 22.5216 20.2753 22.7129 20.4667C22.9045 20.6582 23.0002 20.8959 23.0002 21.1797C23.0002 21.4632 22.9045 21.7008 22.7129 21.8923C22.5216 22.0837 22.284 22.1793 22.0002 22.1793H4.00023ZM13.0002 25.923C12.3353 25.923 11.7675 25.6876 11.2966 25.2167C10.8255 24.7458 10.5899 24.1778 10.5899 23.5127H15.4106C15.4106 24.1778 15.175 24.7458 14.7039 25.2167C14.233 25.6876 13.6651 25.923 13.0002 25.923ZM1.48756 10.218C1.20378 10.218 0.966118 10.1099 0.774563 9.89368C0.583229 9.67746 0.501229 9.42312 0.528562 9.13068C0.672118 7.47268 1.11734 5.93346 1.86423 4.51301C2.61134 3.09234 3.57801 1.86579 4.76423 0.833344C4.9849 0.640232 5.23579 0.550454 5.5169 0.56401C5.79801 0.577787 6.02412 0.701789 6.19523 0.936011C6.36612 1.17023 6.42934 1.42234 6.3849 1.69234C6.34045 1.96234 6.20801 2.19657 5.98756 2.39501C5.03534 3.24279 4.26223 4.24534 3.66823 5.40268C3.07423 6.55979 2.70545 7.81446 2.5619 9.16668C2.5259 9.4589 2.4109 9.70723 2.2169 9.91168C2.0229 10.1159 1.77978 10.218 1.48756 10.218ZM24.5129 10.218C24.2207 10.218 23.9776 10.1159 23.7836 9.91168C23.5896 9.70723 23.4746 9.4589 23.4386 9.16668C23.295 7.81446 22.9262 6.55979 22.3322 5.40268C21.7382 4.24534 20.9651 3.24279 20.0129 2.39501C19.7925 2.19657 19.66 1.96234 19.6156 1.69234C19.5711 1.42234 19.6343 1.17023 19.8052 0.936011C19.9763 0.701789 20.2025 0.577787 20.4836 0.56401C20.7647 0.550454 21.0156 0.640232 21.2362 0.833344C22.4225 1.86579 23.3891 3.09234 24.1362 4.51301C24.8831 5.93346 25.3283 7.47268 25.4719 9.13068C25.4992 9.42312 25.4172 9.67746 25.2259 9.89368C25.0343 10.1099 24.7967 10.218 24.5129 10.218Z" fill="#41090A"/>
</svg>
